<svg width="56" height="50" viewBox="0 0 56 50" fill="none" xmlns="http://www.w3.org/2000/svg">
<path d="M39.4449 1.54989C39.9693 1.72005 40.5894 1.65715 41.0568 1.91041C41.4124 2.04614 41.5219 2.44737 41.2758 2.71288C41.0113 2.91151 40.5987 2.85887 40.2795 2.85688C40.0356 2.83867 39.9238 2.72115 39.8691 2.52053C39.6069 2.43545 39.3447 2.35037 39.1395 2.18219C38.7656 1.97959 38.9957 1.3635 39.4449 1.54989Z" fill="#F5E8F1"/>
<path d="M43.5303 4.84613C44.073 5.08317 44.6339 5.38707 45.1195 5.7072C45.6052 6.02733 46.2025 6.46498 46.3303 6.93309C46.4033 7.20058 46.0636 7.41543 45.8584 7.24725C45.391 6.994 45.1698 6.47524 44.7594 6.13889C44.3307 5.73567 43.8633 5.48241 43.3024 5.17851C43.0972 5.01033 43.3434 4.74483 43.5303 4.84613Z" fill="#F5E8F1"/>
<path d="M46.9786 10.4759C46.983 9.90844 46.894 9.29037 46.7298 8.68852C46.675 8.4879 47.0512 8.40679 47.1059 8.60741C47.3249 9.40988 48.2143 10.9175 47.4575 11.6471C47.3435 11.8133 47.0631 11.6614 47.0266 11.5276C46.9354 11.1932 46.9946 10.8264 46.9786 10.4759Z" fill="#F5E8F1"/>
<path d="M43.4604 13.9241C44.7006 13.7983 45.8086 13.7718 46.7911 12.9935C46.9233 12.8942 47.035 13.0117 46.9028 13.1111C45.9751 14.09 44.7874 14.7001 43.3442 14.374C43.0068 14.3051 43.2165 13.9059 43.4604 13.9241Z" fill="#F5E8F1"/>
<path d="M37.0947 11.6156C37.7513 11.6865 38.3122 11.9904 38.9301 12.2112C39.6414 12.4826 40.2775 12.7703 40.9319 13.1249C41.1188 13.2262 40.9661 13.5424 40.704 13.4573C40.1431 13.1534 39.5435 12.9994 38.9256 12.7786C38.3077 12.5578 37.5577 12.4363 36.9968 12.1324C36.7163 11.9804 36.7573 11.5468 37.0947 11.6156Z" fill="#F5E8F1"/>
<path d="M30.7395 7.88741C32.2214 8.06353 33.8106 8.9246 35.0441 9.64994C35.2493 9.81811 35.0783 10.0674 34.8161 9.98231C34.0865 9.64398 33.2817 9.32186 32.4951 9.06662C31.8773 8.84581 31.2024 8.70809 30.6415 8.40418C30.3429 8.18535 30.4955 7.8692 30.7395 7.88741Z" fill="#F5E8F1"/>
<path d="M23.3695 6.85685C24.7054 6.498 26.1873 6.67412 27.5005 6.81581C27.7444 6.83402 27.7422 7.11773 27.5165 7.1664C26.1463 7.1078 24.8309 7.24981 23.5337 7.4587C23.1393 7.47294 22.9933 6.93796 23.3695 6.85685Z" fill="#F5E8F1"/>
<path d="M18.9311 10.151C19.1978 9.66861 19.6149 9.15383 19.9751 8.72214C20.2782 8.37355 20.8391 8.67745 20.6294 9.0767C20.3444 9.49219 20.0779 9.97451 19.8112 10.4568C19.5444 10.9392 19.3326 11.6221 18.8973 12.0701C18.7081 12.2525 18.3524 12.1167 18.3546 11.833C18.2086 11.298 18.5893 10.6495 18.9311 10.151Z" fill="#F5E8F1"/>
<path d="M18.4867 14.0694C18.4137 13.8019 18.9402 13.6884 19.0132 13.9558C19.2709 14.6083 19.5856 15.1778 19.9187 15.814C20.2334 16.3834 20.7738 16.9042 20.9563 17.5729C21.0475 17.9072 20.5574 18.1545 20.3156 17.8527C19.3282 16.8618 18.7399 15.2893 18.4867 14.0694Z" fill="#F5E8F1"/>
<path d="M23.565 20.1264C24.069 20.5134 24.5728 20.9004 25.0768 21.2874C25.5053 21.6906 26.1597 22.0452 26.381 22.5639C26.454 22.8314 26.1713 22.9632 25.9274 22.945C25.346 22.8579 24.9561 22.3047 24.6209 21.9521C24.0988 21.4983 23.6336 20.9613 23.1115 20.5074C22.8696 20.2055 23.2663 19.9076 23.565 20.1264Z" fill="#F5E8F1"/>
<path d="M28.6594 24.1963C29.4824 24.5853 30.155 25.0067 30.7707 25.5113C31.3863 26.0158 32.2254 26.7554 32.2757 27.5234C32.2917 27.874 31.9338 28.022 31.6351 27.8031C31.1312 27.4161 30.8735 26.7636 30.5018 26.2773C29.9819 25.5397 29.2545 24.9177 28.4702 24.3787C28.3015 24.3443 28.4724 24.095 28.6594 24.1963Z" fill="#F5E8F1"/>
<path d="M34.7354 29.826C35.5585 30.215 36.2494 30.7033 36.9015 31.3415C37.5536 31.9798 38.3358 32.8026 38.4043 33.6375C38.402 33.9212 37.9507 34.0185 37.8207 33.8341C37.205 33.3295 36.986 32.527 36.5026 31.9232C36.001 31.2526 35.2736 30.6304 34.4893 30.0915C34.3023 29.9902 34.455 29.674 34.7354 29.826Z" fill="#F5E8F1"/>
<path d="M37.6032 40.0408C38.0568 39.6599 38.4535 39.3619 38.7201 38.8796C38.9503 38.2635 38.8818 37.4286 38.7175 36.8267C38.6627 36.626 39.0389 36.5449 39.0937 36.7456C39.5909 37.9838 39.8921 40.2553 37.9179 40.6103C37.5987 40.6083 37.3388 40.2395 37.6032 40.0408Z" fill="#F5E8F1"/>
<path d="M30.2657 44.1012C31.0749 43.856 31.939 43.8111 32.7665 43.6327C33.8016 43.3388 34.7066 42.8604 35.3881 42.147C35.5204 42.0477 35.6504 42.2321 35.5933 42.3151C34.3055 43.7257 32.3791 45.1324 30.2224 44.8186C29.7916 44.699 29.8896 44.1823 30.2657 44.1012Z" fill="#F5E8F1"/>
<path d="M22.6307 40.9327C23.2303 41.0867 23.7912 41.3906 24.4843 41.5952C25.0839 41.7491 25.7224 41.7531 26.3424 41.6902C26.7369 41.6759 26.8646 42.144 26.4884 42.2252C25.1524 42.584 23.3126 42.5559 22.2501 41.5813C21.8578 41.3118 22.218 40.88 22.6307 40.9327Z" fill="#F5E8F1"/>
<path d="M18.4506 37.5846C19.6659 38.243 20.9745 38.9522 21.9437 39.8761C22.2606 40.1619 21.7887 40.476 21.49 40.2572C20.407 39.4994 18.8704 39.1226 17.9581 38.1156C17.7918 37.7976 18.0767 37.3821 18.4506 37.5846Z" fill="#F5E8F1"/>
<path d="M12.8274 38.8689C12.9436 38.419 13.4725 38.0217 13.8691 37.7238C14.341 37.4096 14.9246 37.2131 15.5265 37.0833C15.9026 37.0022 16.0303 37.4702 15.6542 37.5513C15.1276 37.6648 14.7127 37.896 14.3161 38.194C13.9945 38.4757 13.7849 38.875 13.4635 39.1566C13.2173 39.4219 12.7501 39.1688 12.8274 38.8689Z" fill="#F5E8F1"/>
<path d="M9.02553 42.4504C9.65904 40.6853 9.86165 38.8006 10.3265 37.001C10.5771 36.1681 11.9633 36.5773 11.7879 37.394C11.4757 38.8773 11.2572 40.4115 10.7011 41.8767C11.3964 41.7976 12.0918 41.7185 12.8623 41.6232C13.1815 41.6251 13.7081 41.5116 14.0069 41.7305L14.1002 41.7811C14.1002 41.7811 14.1754 41.7649 14.1937 41.8318C14.3806 41.9331 14.3032 42.233 14.1527 42.2654C14.0957 42.3485 14.0204 42.3648 13.87 42.3972C13.5119 42.5451 13.1177 42.5594 12.6663 42.6567C11.67 42.8007 10.749 42.9284 9.78926 43.2063C9.35624 43.3704 8.90933 42.9003 9.02553 42.4504Z" fill="#F5E8F1"/>
</svg>
