<svg width="220" height="50" viewBox="0 0 220 50" fill="none" xmlns="http://www.w3.org/2000/svg">
<rect width="220" height="50" rx="10" fill="#A01A77"/>
<path d="M22.5068 30H20.3945V21.7695H16.7168V30H14.5977V20.0059H22.5068V30ZM26.5264 26.165C26.5264 26.9215 26.6494 27.4935 26.8955 27.8809C27.1462 28.2682 27.5518 28.4619 28.1123 28.4619C28.6683 28.4619 29.0671 28.2705 29.3086 27.8877C29.5547 27.5003 29.6777 26.9261 29.6777 26.165C29.6777 25.4085 29.5547 24.8411 29.3086 24.4629C29.0625 24.0846 28.6592 23.8955 28.0986 23.8955C27.5426 23.8955 27.1416 24.0846 26.8955 24.4629C26.6494 24.8366 26.5264 25.404 26.5264 26.165ZM31.8105 26.165C31.8105 27.4092 31.4824 28.3822 30.8262 29.084C30.1699 29.7858 29.2562 30.1367 28.085 30.1367C27.3512 30.1367 26.7041 29.9772 26.1436 29.6582C25.583 29.3346 25.1523 28.8721 24.8516 28.2705C24.5508 27.6689 24.4004 26.9671 24.4004 26.165C24.4004 24.9163 24.7262 23.9456 25.3779 23.2529C26.0296 22.5602 26.9456 22.2139 28.126 22.2139C28.8597 22.2139 29.5068 22.3734 30.0674 22.6924C30.6279 23.0114 31.0586 23.4694 31.3594 24.0664C31.6602 24.6634 31.8105 25.363 31.8105 26.165ZM38.3184 28.4756V23.9229H36.7529C36.639 24.7705 36.4818 25.5749 36.2812 26.3359C36.0853 27.097 35.8118 27.8102 35.4609 28.4756H38.3184ZM41.5244 32.7412H39.6514V30H34.5107V32.7412H32.6377V28.4756H33.2803C33.7178 27.7965 34.0846 26.9398 34.3809 25.9053C34.6771 24.8708 34.8844 23.6882 35.0029 22.3574H40.4033V28.4756H41.5244V32.7412ZM49.8848 24.3604C49.8848 24.7705 49.7549 25.1214 49.4951 25.4131C49.2399 25.7002 48.8617 25.8848 48.3604 25.9668V26.0215C48.9027 26.0853 49.3311 26.2721 49.6455 26.582C49.9645 26.8874 50.124 27.2656 50.124 27.7168C50.124 28.4596 49.8324 29.027 49.249 29.4189C48.6657 29.8063 47.8317 30 46.7471 30H42.8301V22.3574H46.7471C47.7952 22.3574 48.5791 22.5283 49.0986 22.8701C49.6227 23.2074 49.8848 23.7041 49.8848 24.3604ZM47.9639 27.6074C47.9639 27.3066 47.8477 27.0902 47.6152 26.958C47.3828 26.8213 47.0342 26.7529 46.5693 26.7529H44.915V28.5576H46.6104C47.0524 28.5576 47.3874 28.4756 47.6152 28.3115C47.8477 28.1429 47.9639 27.9082 47.9639 27.6074ZM47.7725 24.5244C47.7725 24.0596 47.4033 23.8271 46.665 23.8271H44.915V25.3379H46.4258C46.8678 25.3379 47.2028 25.2741 47.4307 25.1465C47.6585 25.0189 47.7725 24.8115 47.7725 24.5244ZM54.9502 23.6973C54.5081 23.6973 54.1618 23.8385 53.9111 24.1211C53.6605 24.3991 53.5169 24.7956 53.4805 25.3105H56.4062C56.3971 24.7956 56.2627 24.3991 56.0029 24.1211C55.7432 23.8385 55.3923 23.6973 54.9502 23.6973ZM55.2441 30.1367C54.0137 30.1367 53.0521 29.7972 52.3594 29.1182C51.6667 28.4391 51.3203 27.4775 51.3203 26.2334C51.3203 24.9528 51.6393 23.9639 52.2773 23.2666C52.9199 22.5648 53.8063 22.2139 54.9365 22.2139C56.0166 22.2139 56.8574 22.5215 57.459 23.1367C58.0605 23.752 58.3613 24.6019 58.3613 25.6865V26.6982H53.4326C53.4554 27.2907 53.6309 27.7533 53.959 28.0859C54.2871 28.4186 54.7474 28.585 55.3398 28.585C55.8001 28.585 56.2354 28.5371 56.6455 28.4414C57.0557 28.3457 57.484 28.193 57.9307 27.9834V29.5967C57.5661 29.779 57.1764 29.9134 56.7617 30C56.347 30.0911 55.8411 30.1367 55.2441 30.1367ZM64.2539 30.1367C63.3561 30.1367 62.652 29.8109 62.1416 29.1592H62.0322C62.1051 29.7972 62.1416 30.1663 62.1416 30.2666V33.3633H60.0566V22.3574H61.752L62.0459 23.3486H62.1416C62.6292 22.5921 63.3516 22.2139 64.3086 22.2139C65.2109 22.2139 65.9173 22.5625 66.4277 23.2598C66.9382 23.957 67.1934 24.9255 67.1934 26.165C67.1934 26.9808 67.0726 27.6895 66.8311 28.291C66.5941 28.8926 66.2546 29.3506 65.8125 29.665C65.3704 29.9795 64.8509 30.1367 64.2539 30.1367ZM63.6387 23.8818C63.1237 23.8818 62.7477 24.0413 62.5107 24.3604C62.2738 24.6748 62.1507 25.1966 62.1416 25.9258V26.1514C62.1416 26.9717 62.2624 27.5596 62.5039 27.915C62.75 28.2705 63.1374 28.4482 63.666 28.4482C64.6003 28.4482 65.0674 27.6781 65.0674 26.1377C65.0674 25.3857 64.9512 24.8229 64.7188 24.4492C64.4909 24.071 64.1309 23.8818 63.6387 23.8818ZM73.7012 28.4756V23.9229H72.1357C72.0218 24.7705 71.8646 25.5749 71.6641 26.3359C71.4681 27.097 71.1947 27.8102 70.8438 28.4756H73.7012ZM76.9072 32.7412H75.0342V30H69.8936V32.7412H68.0205V28.4756H68.6631C69.1006 27.7965 69.4674 26.9398 69.7637 25.9053C70.0599 24.8708 70.2673 23.6882 70.3857 22.3574H75.7861V28.4756H76.9072V32.7412ZM80.2295 22.3574V25.3789C80.2295 25.6979 80.1771 26.4772 80.0723 27.7168L83.5996 22.3574H86.1084V30H84.0918V26.9512C84.0918 26.4089 84.1374 25.6432 84.2285 24.6543L80.7148 30H78.2129V22.3574H80.2295ZM94.626 22.3574V23.9229H92.124V30H90.0391V23.9229H87.5303V22.3574H94.626ZM98.1396 25.3105H99.6094C100.785 25.3105 101.656 25.4974 102.221 25.8711C102.786 26.2448 103.068 26.8099 103.068 27.5664C103.068 29.1888 101.943 30 99.6914 30H96.0547V22.3574H98.1396V25.3105ZM100.983 27.5938C100.983 27.2975 100.865 27.0833 100.628 26.9512C100.391 26.819 100.038 26.7529 99.5684 26.7529H98.1396V28.5576H99.5957C100.521 28.5576 100.983 28.2363 100.983 27.5938ZM113.746 30.1367C112.848 30.1367 112.144 29.8109 111.634 29.1592H111.524C111.597 29.7972 111.634 30.1663 111.634 30.2666V33.3633H109.549V22.3574H111.244L111.538 23.3486H111.634C112.121 22.5921 112.844 22.2139 113.801 22.2139C114.703 22.2139 115.41 22.5625 115.92 23.2598C116.43 23.957 116.686 24.9255 116.686 26.165C116.686 26.9808 116.565 27.6895 116.323 28.291C116.086 28.8926 115.747 29.3506 115.305 29.665C114.863 29.9795 114.343 30.1367 113.746 30.1367ZM113.131 23.8818C112.616 23.8818 112.24 24.0413 112.003 24.3604C111.766 24.6748 111.643 25.1966 111.634 25.9258V26.1514C111.634 26.9717 111.755 27.5596 111.996 27.915C112.242 28.2705 112.63 28.4482 113.158 28.4482C114.092 28.4482 114.56 27.6781 114.56 26.1377C114.56 25.3857 114.443 24.8229 114.211 24.4492C113.983 24.071 113.623 23.8818 113.131 23.8818ZM121.573 23.6973C121.131 23.6973 120.785 23.8385 120.534 24.1211C120.284 24.3991 120.14 24.7956 120.104 25.3105H123.029C123.02 24.7956 122.886 24.3991 122.626 24.1211C122.366 23.8385 122.015 23.6973 121.573 23.6973ZM121.867 30.1367C120.637 30.1367 119.675 29.7972 118.982 29.1182C118.29 28.4391 117.943 27.4775 117.943 26.2334C117.943 24.9528 118.262 23.9639 118.9 23.2666C119.543 22.5648 120.429 22.2139 121.56 22.2139C122.64 22.2139 123.48 22.5215 124.082 23.1367C124.684 23.752 124.984 24.6019 124.984 25.6865V26.6982H120.056C120.078 27.2907 120.254 27.7533 120.582 28.0859C120.91 28.4186 121.37 28.585 121.963 28.585C122.423 28.585 122.858 28.5371 123.269 28.4414C123.679 28.3457 124.107 28.193 124.554 27.9834V29.5967C124.189 29.779 123.799 29.9134 123.385 30C122.97 30.0911 122.464 30.1367 121.867 30.1367ZM131.957 22.3574V23.9229H128.765V30H126.68V22.3574H131.957ZM135.396 22.3574V25.3789C135.396 25.6979 135.343 26.4772 135.238 27.7168L138.766 22.3574H141.274V30H139.258V26.9512C139.258 26.4089 139.303 25.6432 139.395 24.6543L135.881 30H133.379V22.3574H135.396ZM146.572 30.1367C144.193 30.1367 143.004 28.8311 143.004 26.2197C143.004 24.9209 143.327 23.9297 143.975 23.2461C144.622 22.5579 145.549 22.2139 146.757 22.2139C147.641 22.2139 148.434 22.387 149.136 22.7334L148.521 24.3467C148.192 24.2145 147.887 24.1074 147.604 24.0254C147.322 23.9388 147.039 23.8955 146.757 23.8955C145.672 23.8955 145.13 24.6657 145.13 26.2061C145.13 27.7008 145.672 28.4482 146.757 28.4482C147.158 28.4482 147.529 28.3958 147.871 28.291C148.213 28.1816 148.555 28.013 148.896 27.7852V29.5693C148.559 29.7835 148.217 29.9316 147.871 30.0137C147.529 30.0957 147.096 30.1367 146.572 30.1367ZM156.997 22.3574V23.9229H154.495V30H152.41V23.9229H149.901V22.3574H156.997ZM162.623 30.1367C161.725 30.1367 161.021 29.8109 160.511 29.1592H160.401C160.474 29.7972 160.511 30.1663 160.511 30.2666V33.3633H158.426V22.3574H160.121L160.415 23.3486H160.511C160.998 22.5921 161.721 22.2139 162.678 22.2139C163.58 22.2139 164.286 22.5625 164.797 23.2598C165.307 23.957 165.562 24.9255 165.562 26.165C165.562 26.9808 165.442 27.6895 165.2 28.291C164.963 28.8926 164.624 29.3506 164.182 29.665C163.74 29.9795 163.22 30.1367 162.623 30.1367ZM162.008 23.8818C161.493 23.8818 161.117 24.0413 160.88 24.3604C160.643 24.6748 160.52 25.1966 160.511 25.9258V26.1514C160.511 26.9717 160.632 27.5596 160.873 27.915C161.119 28.2705 161.507 28.4482 162.035 28.4482C162.969 28.4482 163.437 27.6781 163.437 26.1377C163.437 25.3857 163.32 24.8229 163.088 24.4492C162.86 24.071 162.5 23.8818 162.008 23.8818ZM172.139 30L171.735 28.9609H171.681C171.33 29.403 170.967 29.7106 170.594 29.8838C170.225 30.0524 169.742 30.1367 169.145 30.1367C168.411 30.1367 167.832 29.9271 167.408 29.5078C166.989 29.0885 166.779 28.4915 166.779 27.7168C166.779 26.9056 167.062 26.3086 167.627 25.9258C168.197 25.5384 169.053 25.3242 170.197 25.2832L171.523 25.2422V24.9072C171.523 24.1325 171.127 23.7451 170.334 23.7451C169.723 23.7451 169.006 23.9297 168.181 24.2988L167.49 22.8906C168.37 22.4303 169.345 22.2002 170.416 22.2002C171.441 22.2002 172.228 22.4235 172.774 22.8701C173.321 23.3167 173.595 23.9958 173.595 24.9072V30H172.139ZM171.523 26.459L170.717 26.4863C170.111 26.5046 169.66 26.6139 169.363 26.8145C169.067 27.015 168.919 27.3203 168.919 27.7305C168.919 28.3184 169.256 28.6123 169.931 28.6123C170.414 28.6123 170.799 28.4733 171.086 28.1953C171.378 27.9173 171.523 27.5482 171.523 27.0879V26.459ZM182.974 28.4756H184.088V32.7412H182.215V30H175.748V22.3574H177.833V28.4346H180.882V22.3574H182.974V28.4756ZM187.403 22.3574V25.3789C187.403 25.6979 187.351 26.4772 187.246 27.7168L190.773 22.3574H193.282V30H191.266V26.9512C191.266 26.4089 191.311 25.6432 191.402 24.6543L187.889 30H185.387V22.3574H187.403ZM206.031 26.165C206.031 27.4183 205.715 28.3936 205.081 29.0908C204.448 29.7881 203.57 30.1367 202.449 30.1367C201.442 30.1367 200.635 29.8542 200.029 29.2891C199.428 28.724 199.063 27.9105 198.936 26.8486H197.562V30H195.477V22.3574H197.562V25.2969H198.963C199.095 24.3216 199.471 23.5651 200.091 23.0273C200.715 22.485 201.515 22.2139 202.49 22.2139C203.57 22.2139 204.429 22.5693 205.067 23.2803C205.71 23.9867 206.031 24.9482 206.031 26.165ZM201.034 26.165C201.034 26.9261 201.146 27.5003 201.369 27.8877C201.592 28.2705 201.962 28.4619 202.477 28.4619C202.982 28.4619 203.347 28.2705 203.57 27.8877C203.794 27.5003 203.905 26.9261 203.905 26.165C203.905 25.404 203.791 24.8366 203.563 24.4629C203.34 24.0846 202.973 23.8955 202.463 23.8955C201.957 23.8955 201.592 24.0846 201.369 24.4629C201.146 24.8411 201.034 25.4085 201.034 26.165Z" fill="white"/>
</svg>
