<svg width="178" height="47" viewBox="0 0 178 47" fill="none" xmlns="http://www.w3.org/2000/svg">
<path d="M31.528 7.7879C31.528 6.21311 30.2392 4.93555 28.649 4.93555H14.8868C13.297 4.93555 12.0078 6.21311 12.0078 7.7879V12.1313H31.5283V7.7879H31.528Z" fill="#A01A77"/>
<path d="M30.0438 16.1398H33.9498V19.5963H30.0438V16.1398ZM34.7071 29.6667H35.4332C37.2136 29.6667 38.6566 28.3892 38.6566 26.8144V16.6955C38.6566 15.12 37.2136 13.8428 35.4332 13.8428H8.10229C6.32182 13.8428 4.87891 15.1197 4.87891 16.6955V26.8144C4.87891 28.3892 6.32182 29.6667 8.10229 29.6667H9.46131V20.805H11.5033H26.5116C28.7758 20.805 30.8331 21.7216 32.3231 23.1978C33.813 24.6739 34.7381 26.7122 34.7381 28.9555C34.7381 29.1948 34.7277 29.4322 34.7068 29.6667H34.7071Z" fill="#A01A77"/>
<path d="M26.5113 24.8506H13.5449V33.06H26.5113C27.6483 33.06 28.6841 32.5974 29.4356 31.8529C30.1871 31.1084 30.6539 30.0821 30.6539 28.9556C30.6539 27.8288 30.1871 26.8028 29.4356 26.058C28.6841 25.3134 27.6483 24.8509 26.5113 24.8509V24.8506Z" fill="#A01A77"/>
<path d="M9.48242 42.0653V32.71H13.5255V42.0653H9.48242Z" fill="#A01A77"/>
<path d="M54.0586 41.6041H61.3235V32.7255H66.2653C72.0183 32.7255 75.8166 29.7296 75.8166 24.3221C75.8166 18.7684 72.1659 15.4804 65.8964 15.4804H54.0586V41.6041ZM61.3235 27.5008V20.9241H65.3062C67.7033 20.9241 68.7728 22.1664 68.7728 24.1759C68.7728 26.1488 67.7402 27.5008 65.2693 27.5008H61.3235ZM77.8449 41.6041H84.7043V32.4335C84.7043 29.6202 86.4743 28.3411 88.2815 28.3411C89.5723 28.3411 90.1625 28.67 90.7524 29.0355L92.1905 22.8608C91.5637 22.3857 90.7155 22.0933 89.5354 22.0933C87.6544 22.0933 85.8844 23.1529 84.7043 25.7837V22.4953H77.8449V41.6041ZM93.9974 41.6041H100.82V22.4953H93.9974V41.6041ZM97.4271 20.851C99.6029 20.851 101.226 19.2432 101.226 17.234C101.226 15.2246 99.6029 13.6533 97.4271 13.6533C95.2513 13.6533 93.6288 15.2246 93.6288 17.234C93.6288 19.2435 95.2516 20.851 97.4271 20.851ZM104.434 41.6041H111.293V30.8257C111.293 28.5238 112.363 27.4642 114.059 27.4642C115.719 27.4642 116.42 28.4507 116.42 30.4237V41.6041H123.242V29.0355C123.242 24.2855 120.845 21.9837 117.342 21.9837C114.281 21.9837 112.327 23.5549 111.294 25.5278V22.4953H104.434V41.6041H104.434ZM125.049 27.5739H127.556V35.3198C127.556 39.9963 130.138 42.0427 134.01 42.0427C136.517 42.0427 138.14 41.0562 138.841 40.508L137.402 35.9408C136.997 36.1601 136.444 36.489 135.743 36.489C134.784 36.489 134.415 35.9045 134.415 34.5891V27.5739H138.066V22.4953H134.415V16.7227L127.556 19.1342V22.4957H125.048V27.5742L125.049 27.5739ZM141.017 41.6041H147.839V22.4953H141.017V41.6041ZM144.447 20.851C146.622 20.851 148.245 19.2432 148.245 17.234C148.245 15.2246 146.622 13.6533 144.447 13.6533C142.271 13.6533 140.648 15.2246 140.648 17.234C140.648 19.2435 142.271 20.851 144.447 20.851ZM149.868 41.6041H156.875L160.23 36.1966L163.512 41.6041H171.441L164.582 31.3739L170.851 22.4953H163.807L160.968 27.2449L158.165 22.4953H150.273L156.469 31.8852L149.868 41.6041Z" fill="#560C3E"/>
<path d="M43.3803 41.6041H50.2028V22.4953H43.3803V41.6041ZM46.81 20.851C48.9858 20.851 50.6086 19.2432 50.6086 17.234C50.6086 15.2246 48.9858 13.6533 46.81 13.6533C44.6342 13.6533 43.0117 15.2246 43.0117 17.234C43.0117 19.2435 44.6345 20.851 46.81 20.851Z" fill="#560C3E"/>
<path d="M15.5449 36.5195H30.6456" stroke="#A01A77" stroke-width="0.540816" stroke-miterlimit="22.9256" stroke-linecap="round"/>
<path d="M15.5449 39.0791H30.6456" stroke="#A01A77" stroke-width="0.540816" stroke-miterlimit="22.9256" stroke-linecap="round"/>
<path d="M15.5449 41.5068H30.6456" stroke="#A01A77" stroke-width="0.540816" stroke-miterlimit="22.9256" stroke-linecap="round"/>
</svg>
